# Tiled2Unity generated file. Do not modify by hand.
# Wavefront file for 'Demo_map_mesh_0003.obj'

# Vertices (Count = 344)
v -416 -464 0
v -432 -464 0
v -432 -448 0
v -416 -448 0
v -432 -464 0
v -448 -464 0
v -448 -448 0
v -432 -448 0
v -576 -464 0
v -592 -464 0
v -592 -448 0
v -576 -448 0
v -592 -464 0
v -608 -464 0
v -608 -448 0
v -592 -448 0
v -416 -480 0
v -432 -480 0
v -432 -464 0
v -416 -464 0
v -432 -480 0
v -448 -480 0
v -448 -464 0
v -432 -464 0
v -480 -480 0
v -496 -480 0
v -496 -464 0
v -480 -464 0
v -496 -480 0
v -512 -480 0
v -512 -464 0
v -496 -464 0
v -512 -480 0
v -528 -480 0
v -528 -464 0
v -512 -464 0
v -528 -480 0
v -544 -480 0
v -544 -464 0
v -528 -464 0
v -576 -480 0
v -592 -480 0
v -592 -464 0
v -576 -464 0
v -592 -480 0
v -608 -480 0
v -608 -464 0
v -592 -464 0
v -752 -480 0
v -768 -480 0
v -768 -464 0
v -752 -464 0
v -768 -480 0
v -784 -480 0
v -784 -464 0
v -768 -464 0
v -848 -480 0
v -864 -480 0
v -864 -464 0
v -848 -464 0
v -864 -480 0
v -880 -480 0
v -880 -464 0
v -864 -464 0
v -416 -496 0
v -432 -496 0
v -432 -480 0
v -416 -480 0
v -432 -496 0
v -448 -496 0
v -448 -480 0
v -432 -480 0
v -480 -496 0
v -496 -496 0
v -496 -480 0
v -480 -480 0
v -496 -496 0
v -512 -496 0
v -512 -480 0
v -496 -480 0
v -512 -496 0
v -528 -496 0
v -528 -480 0
v -512 -480 0
v -528 -496 0
v -544 -496 0
v -544 -480 0
v -528 -480 0
v -576 -496 0
v -592 -496 0
v -592 -480 0
v -576 -480 0
v -592 -496 0
v -608 -496 0
v -608 -480 0
v -592 -480 0
v -752 -496 0
v -768 -496 0
v -768 -480 0
v -752 -480 0
v -768 -496 0
v -784 -496 0
v -784 -480 0
v -768 -480 0
v -848 -496 0
v -864 -496 0
v -864 -480 0
v -848 -480 0
v -864 -496 0
v -880 -496 0
v -880 -480 0
v -864 -480 0
v -416 -512 0
v -432 -512 0
v -432 -496 0
v -416 -496 0
v -432 -512 0
v -448 -512 0
v -448 -496 0
v -432 -496 0
v -480 -512 0
v -496 -512 0
v -496 -496 0
v -480 -496 0
v -496 -512 0
v -512 -512 0
v -512 -496 0
v -496 -496 0
v -512 -512 0
v -528 -512 0
v -528 -496 0
v -512 -496 0
v -528 -512 0
v -544 -512 0
v -544 -496 0
v -528 -496 0
v -576 -512 0
v -592 -512 0
v -592 -496 0
v -576 -496 0
v -592 -512 0
v -608 -512 0
v -608 -496 0
v -592 -496 0
v -752 -512 0
v -768 -512 0
v -768 -496 0
v -752 -496 0
v -768 -512 0
v -784 -512 0
v -784 -496 0
v -768 -496 0
v -848 -512 0
v -864 -512 0
v -864 -496 0
v -848 -496 0
v -864 -512 0
v -880 -512 0
v -880 -496 0
v -864 -496 0
v -752 -528 0
v -768 -528 0
v -768 -512 0
v -752 -512 0
v -768 -528 0
v -784 -528 0
v -784 -512 0
v -768 -512 0
v -848 -528 0
v -864 -528 0
v -864 -512 0
v -848 -512 0
v -864 -528 0
v -880 -528 0
v -880 -512 0
v -864 -512 0
v -752 -544 0
v -768 -544 0
v -768 -528 0
v -752 -528 0
v -768 -544 0
v -784 -544 0
v -784 -528 0
v -768 -528 0
v -800 -544 0
v -816 -544 0
v -816 -528 0
v -800 -528 0
v -816 -544 0
v -832 -544 0
v -832 -528 0
v -816 -528 0
v -848 -544 0
v -864 -544 0
v -864 -528 0
v -848 -528 0
v -864 -544 0
v -880 -544 0
v -880 -528 0
v -864 -528 0
v -800 -560 0
v -816 -560 0
v -816 -544 0
v -800 -544 0
v -816 -560 0
v -832 -560 0
v -832 -544 0
v -816 -544 0
v -768 -576 0
v -784 -576 0
v -784 -560 0
v -768 -560 0
v -800 -576 0
v -816 -576 0
v -816 -560 0
v -800 -560 0
v -816 -576 0
v -832 -576 0
v -832 -560 0
v -816 -560 0
v -848 -576 0
v -864 -576 0
v -864 -560 0
v -848 -560 0
v -768 -592 0
v -784 -592 0
v -784 -576 0
v -768 -576 0
v -800 -592 0
v -816 -592 0
v -816 -576 0
v -800 -576 0
v -816 -592 0
v -832 -592 0
v -832 -576 0
v -816 -576 0
v -848 -592 0
v -864 -592 0
v -864 -576 0
v -848 -576 0
v -768 -608 0
v -784 -608 0
v -784 -592 0
v -768 -592 0
v -800 -608 0
v -816 -608 0
v -816 -592 0
v -800 -592 0
v -816 -608 0
v -832 -608 0
v -832 -592 0
v -816 -592 0
v -848 -608 0
v -864 -608 0
v -864 -592 0
v -848 -592 0
v -768 -624 0
v -784 -624 0
v -784 -608 0
v -768 -608 0
v -848 -624 0
v -864 -624 0
v -864 -608 0
v -848 -608 0
v -768 -640 0
v -784 -640 0
v -784 -624 0
v -768 -624 0
v -784 -640 0
v -800 -640 0
v -800 -624 0
v -784 -624 0
v -800 -640 0
v -816 -640 0
v -816 -624 0
v -800 -624 0
v -816 -640 0
v -832 -640 0
v -832 -624 0
v -816 -624 0
v -832 -640 0
v -848 -640 0
v -848 -624 0
v -832 -624 0
v -848 -640 0
v -864 -640 0
v -864 -624 0
v -848 -624 0
v -768 -656 0
v -784 -656 0
v -784 -640 0
v -768 -640 0
v -784 -656 0
v -800 -656 0
v -800 -640 0
v -784 -640 0
v -800 -656 0
v -816 -656 0
v -816 -640 0
v -800 -640 0
v -816 -656 0
v -832 -656 0
v -832 -640 0
v -816 -640 0
v -832 -656 0
v -848 -656 0
v -848 -640 0
v -832 -640 0
v -848 -656 0
v -864 -656 0
v -864 -640 0
v -848 -640 0
v -912 -656 0
v -928 -656 0
v -928 -640 0
v -912 -640 0
v -928 -656 0
v -944 -656 0
v -944 -640 0
v -928 -640 0
v -912 -672 0
v -928 -672 0
v -928 -656 0
v -912 -656 0
v -928 -672 0
v -944 -672 0
v -944 -656 0
v -928 -656 0
v -912 -688 0
v -928 -688 0
v -928 -672 0
v -912 -672 0
v -928 -688 0
v -944 -688 0
v -944 -672 0
v -928 -672 0
v -912 -704 0
v -928 -704 0
v -928 -688 0
v -912 -688 0
v -928 -704 0
v -944 -704 0
v -944 -688 0
v -928 -688 0

# Texture cooridinates (Count = 109)
vt 0.875 0.2894737
vt 0.9375 0.2894737
vt 0.9375 0.3157895
vt 0.875 0.3157895
vt 1 0.2894737
vt 1 0.3157895
vt 0.875 0.2631579
vt 0.9375 0.2631579
vt 1 0.2631579
vt 0.625 0.2894737
vt 0.6875 0.2894737
vt 0.6875 0.3157895
vt 0.625 0.3157895
vt 0.75 0.2894737
vt 0.75 0.3157895
vt 0.8125 0.2894737
vt 0.8125 0.3157895
vt 0.25 0.2368421
vt 0.3125 0.2368421
vt 0.3125 0.2631579
vt 0.25 0.2631579
vt 0.375 0.2368421
vt 0.375 0.2631579
vt 0.875 0.2368421
vt 0.9375 0.2368421
vt 1 0.2368421
vt 0.625 0.2631579
vt 0.6875 0.2631579
vt 0.75 0.2631579
vt 0.8125 0.2631579
vt 0.25 0.2105263
vt 0.3125 0.2105263
vt 0.375 0.2105263
vt 0.875 0.2105263
vt 0.9375 0.2105263
vt 1 0.2105263
vt 0.625 0.2368421
vt 0.6875 0.2368421
vt 0.75 0.2368421
vt 0.8125 0.2368421
vt 0.25 0.1842105
vt 0.3125 0.1842105
vt 0.375 0.1842105
vt 0.25 0.1578947
vt 0.3125 0.1578947
vt 0.375 0.1578947
vt 0.25 0.1315789
vt 0.3125 0.1315789
vt 0.375 0.1315789
vt 0.125 0.2368421
vt 0.1875 0.2368421
vt 0.1875 0.2631579
vt 0.125 0.2631579
vt 0.125 0.2105263
vt 0.1875 0.2105263
vt 0.4375 0.7631579
vt 0.5 0.7631579
vt 0.5 0.7894737
vt 0.4375 0.7894737
vt 0.125 0.1842105
vt 0.1875 0.1842105
vt 0.625 0.7631579
vt 0.6875 0.7631579
vt 0.6875 0.7894737
vt 0.625 0.7894737
vt 0.4375 0.7368421
vt 0.5 0.7368421
vt 0.125 0.1578947
vt 0.1875 0.1578947
vt 0.625 0.7368421
vt 0.6875 0.7368421
vt 0.4375 0.7105263
vt 0.5 0.7105263
vt 0.125 0.1315789
vt 0.1875 0.1315789
vt 0.625 0.7105263
vt 0.6875 0.7105263
vt 0.4375 0.6842105
vt 0.5 0.6842105
vt 0.625 0.6842105
vt 0.6875 0.6842105
vt 0.4375 0.6578947
vt 0.5 0.6578947
vt 0.5625 0.6578947
vt 0.5625 0.6842105
vt 0.5625 0.7105263
vt 0.5625 0.7368421
vt 0.625 0.6578947
vt 0.6875 0.6578947
vt 0.4375 0.6315789
vt 0.5 0.6315789
vt 0.5625 0.6315789
vt 0.625 0.6315789
vt 0.6875 0.6315789
vt 0.875 0.07894737
vt 0.9375 0.07894737
vt 0.9375 0.1052632
vt 0.875 0.1052632
vt 1 0.07894737
vt 1 0.1052632
vt 0.875 0.05263156
vt 0.9375 0.05263156
vt 1 0.05263156
vt 0.875 0.02631581
vt 0.9375 0.02631581
vt 1 0.02631581
vt 0.875 0
vt 0.9375 0
vt 1 0

# Normal
vn 0 0 -1

# Mesh description
g Demo_map_mesh_0003

# Faces
f 1/1/1 2/2/1 3/3/1 4/4/1
f 5/2/1 6/5/1 7/6/1 8/3/1
f 9/1/1 10/2/1 11/3/1 12/4/1
f 13/2/1 14/5/1 15/6/1 16/3/1
f 17/7/1 18/8/1 19/2/1 20/1/1
f 21/8/1 22/9/1 23/5/1 24/2/1
f 25/10/1 26/11/1 27/12/1 28/13/1
f 29/11/1 30/14/1 31/15/1 32/12/1
f 33/14/1 34/16/1 35/17/1 36/15/1
f 37/16/1 38/1/1 39/4/1 40/17/1
f 41/7/1 42/8/1 43/2/1 44/1/1
f 45/8/1 46/9/1 47/5/1 48/2/1
f 49/18/1 50/19/1 51/20/1 52/21/1
f 53/19/1 54/22/1 55/23/1 56/20/1
f 57/18/1 58/19/1 59/20/1 60/21/1
f 61/19/1 62/22/1 63/23/1 64/20/1
f 65/24/1 66/25/1 67/8/1 68/7/1
f 69/25/1 70/26/1 71/9/1 72/8/1
f 73/27/1 74/28/1 75/11/1 76/10/1
f 77/28/1 78/29/1 79/14/1 80/11/1
f 81/29/1 82/30/1 83/16/1 84/14/1
f 85/30/1 86/7/1 87/1/1 88/16/1
f 89/24/1 90/25/1 91/8/1 92/7/1
f 93/25/1 94/26/1 95/9/1 96/8/1
f 97/31/1 98/32/1 99/19/1 100/18/1
f 101/32/1 102/33/1 103/22/1 104/19/1
f 105/31/1 106/32/1 107/19/1 108/18/1
f 109/32/1 110/33/1 111/22/1 112/19/1
f 113/34/1 114/35/1 115/25/1 116/24/1
f 117/35/1 118/36/1 119/26/1 120/25/1
f 121/37/1 122/38/1 123/28/1 124/27/1
f 125/38/1 126/39/1 127/29/1 128/28/1
f 129/39/1 130/40/1 131/30/1 132/29/1
f 133/40/1 134/24/1 135/7/1 136/30/1
f 137/34/1 138/35/1 139/25/1 140/24/1
f 141/35/1 142/36/1 143/26/1 144/25/1
f 145/41/1 146/42/1 147/32/1 148/31/1
f 149/42/1 150/43/1 151/33/1 152/32/1
f 153/41/1 154/42/1 155/32/1 156/31/1
f 157/42/1 158/43/1 159/33/1 160/32/1
f 161/44/1 162/45/1 163/42/1 164/41/1
f 165/45/1 166/46/1 167/43/1 168/42/1
f 169/44/1 170/45/1 171/42/1 172/41/1
f 173/45/1 174/46/1 175/43/1 176/42/1
f 177/47/1 178/48/1 179/45/1 180/44/1
f 181/48/1 182/49/1 183/46/1 184/45/1
f 185/50/1 186/51/1 187/52/1 188/53/1
f 189/51/1 190/18/1 191/21/1 192/52/1
f 193/47/1 194/48/1 195/45/1 196/44/1
f 197/48/1 198/49/1 199/46/1 200/45/1
f 201/54/1 202/55/1 203/51/1 204/50/1
f 205/55/1 206/31/1 207/18/1 208/51/1
f 209/56/1 210/57/1 211/58/1 212/59/1
f 213/60/1 214/61/1 215/55/1 216/54/1
f 217/61/1 218/41/1 219/31/1 220/55/1
f 221/62/1 222/63/1 223/64/1 224/65/1
f 225/66/1 226/67/1 227/57/1 228/56/1
f 229/68/1 230/69/1 231/61/1 232/60/1
f 233/69/1 234/44/1 235/41/1 236/61/1
f 237/70/1 238/71/1 239/63/1 240/62/1
f 241/72/1 242/73/1 243/67/1 244/66/1
f 245/74/1 246/75/1 247/69/1 248/68/1
f 249/75/1 250/47/1 251/44/1 252/69/1
f 253/76/1 254/77/1 255/71/1 256/70/1
f 257/78/1 258/79/1 259/73/1 260/72/1
f 261/80/1 262/81/1 263/77/1 264/76/1
f 265/82/1 266/83/1 267/79/1 268/78/1
f 269/83/1 270/84/1 271/85/1 272/79/1
f 273/73/1 274/86/1 275/87/1 276/67/1
f 277/86/1 278/76/1 279/70/1 280/87/1
f 281/84/1 282/88/1 283/80/1 284/85/1
f 285/88/1 286/89/1 287/81/1 288/80/1
f 289/90/1 290/91/1 291/83/1 292/82/1
f 293/91/1 294/92/1 295/84/1 296/83/1
f 297/79/1 298/85/1 299/86/1 300/73/1
f 301/85/1 302/80/1 303/76/1 304/86/1
f 305/92/1 306/93/1 307/88/1 308/84/1
f 309/93/1 310/94/1 311/89/1 312/88/1
f 313/95/1 314/96/1 315/97/1 316/98/1
f 317/96/1 318/99/1 319/100/1 320/97/1
f 321/101/1 322/102/1 323/96/1 324/95/1
f 325/102/1 326/103/1 327/99/1 328/96/1
f 329/104/1 330/105/1 331/102/1 332/101/1
f 333/105/1 334/106/1 335/103/1 336/102/1
f 337/107/1 338/108/1 339/105/1 340/104/1
f 341/108/1 342/109/1 343/106/1 344/105/1

