# Tiled2Unity generated file. Do not modify by hand.
# Wavefront file for 'Demo_map_mesh_0002.obj'

# Vertices (Count = 800)
v -576 -192 0
v -592 -192 0
v -592 -176 0
v -576 -176 0
v -592 -192 0
v -608 -192 0
v -608 -176 0
v -592 -176 0
v -624 -192 0
v -640 -192 0
v -640 -176 0
v -624 -176 0
v -640 -192 0
v -656 -192 0
v -656 -176 0
v -640 -176 0
v -656 -192 0
v -672 -192 0
v -672 -176 0
v -656 -176 0
v -672 -192 0
v -688 -192 0
v -688 -176 0
v -672 -176 0
v -688 -192 0
v -704 -192 0
v -704 -176 0
v -688 -176 0
v -704 -192 0
v -720 -192 0
v -720 -176 0
v -704 -176 0
v -736 -192 0
v -752 -192 0
v -752 -176 0
v -736 -176 0
v -752 -192 0
v -768 -192 0
v -768 -176 0
v -752 -176 0
v -448 -208 0
v -464 -208 0
v -464 -192 0
v -448 -192 0
v -464 -208 0
v -480 -208 0
v -480 -192 0
v -464 -192 0
v -544 -208 0
v -560 -208 0
v -560 -192 0
v -544 -192 0
v -560 -208 0
v -576 -208 0
v -576 -192 0
v -560 -192 0
v -576 -208 0
v -592 -208 0
v -592 -192 0
v -576 -192 0
v -592 -208 0
v -608 -208 0
v -608 -192 0
v -592 -192 0
v -624 -208 0
v -640 -208 0
v -640 -192 0
v -624 -192 0
v -640 -208 0
v -656 -208 0
v -656 -192 0
v -640 -192 0
v -656 -208 0
v -672 -208 0
v -672 -192 0
v -656 -192 0
v -672 -208 0
v -688 -208 0
v -688 -192 0
v -672 -192 0
v -688 -208 0
v -704 -208 0
v -704 -192 0
v -688 -192 0
v -704 -208 0
v -720 -208 0
v -720 -192 0
v -704 -192 0
v -736 -208 0
v -752 -208 0
v -752 -192 0
v -736 -192 0
v -752 -208 0
v -768 -208 0
v -768 -192 0
v -752 -192 0
v -448 -224 0
v -464 -224 0
v -464 -208 0
v -448 -208 0
v -464 -224 0
v -480 -224 0
v -480 -208 0
v -464 -208 0
v -480 -224 0
v -496 -224 0
v -496 -208 0
v -480 -208 0
v -496 -224 0
v -512 -224 0
v -512 -208 0
v -496 -208 0
v -512 -224 0
v -528 -224 0
v -528 -208 0
v -512 -208 0
v -528 -224 0
v -544 -224 0
v -544 -208 0
v -528 -208 0
v -544 -224 0
v -560 -224 0
v -560 -208 0
v -544 -208 0
v -560 -224 0
v -576 -224 0
v -576 -208 0
v -560 -208 0
v -576 -224 0
v -592 -224 0
v -592 -208 0
v -576 -208 0
v -592 -224 0
v -608 -224 0
v -608 -208 0
v -592 -208 0
v -736 -224 0
v -752 -224 0
v -752 -208 0
v -736 -208 0
v -752 -224 0
v -768 -224 0
v -768 -208 0
v -752 -208 0
v -784 -224 0
v -800 -224 0
v -800 -208 0
v -784 -208 0
v -800 -224 0
v -816 -224 0
v -816 -208 0
v -800 -208 0
v -816 -224 0
v -832 -224 0
v -832 -208 0
v -816 -208 0
v -832 -224 0
v -848 -224 0
v -848 -208 0
v -832 -208 0
v -400 -240 0
v -416 -240 0
v -416 -224 0
v -400 -224 0
v -416 -240 0
v -432 -240 0
v -432 -224 0
v -416 -224 0
v -464 -240 0
v -480 -240 0
v -480 -224 0
v -464 -224 0
v -480 -240 0
v -496 -240 0
v -496 -224 0
v -480 -224 0
v -528 -240 0
v -544 -240 0
v -544 -224 0
v -528 -224 0
v -544 -240 0
v -560 -240 0
v -560 -224 0
v -544 -224 0
v -576 -240 0
v -592 -240 0
v -592 -224 0
v -576 -224 0
v -592 -240 0
v -608 -240 0
v -608 -224 0
v -592 -224 0
v -624 -240 0
v -640 -240 0
v -640 -224 0
v -624 -224 0
v -640 -240 0
v -656 -240 0
v -656 -224 0
v -640 -224 0
v -656 -240 0
v -672 -240 0
v -672 -224 0
v -656 -224 0
v -672 -240 0
v -688 -240 0
v -688 -224 0
v -672 -224 0
v -688 -240 0
v -704 -240 0
v -704 -224 0
v -688 -224 0
v -704 -240 0
v -720 -240 0
v -720 -224 0
v -704 -224 0
v -736 -240 0
v -752 -240 0
v -752 -224 0
v -736 -224 0
v -752 -240 0
v -768 -240 0
v -768 -224 0
v -752 -224 0
v -784 -240 0
v -800 -240 0
v -800 -224 0
v -784 -224 0
v -800 -240 0
v -816 -240 0
v -816 -224 0
v -800 -224 0
v -816 -240 0
v -832 -240 0
v -832 -224 0
v -816 -224 0
v -832 -240 0
v -848 -240 0
v -848 -224 0
v -832 -224 0
v -912 -240 0
v -928 -240 0
v -928 -224 0
v -912 -224 0
v -928 -240 0
v -944 -240 0
v -944 -224 0
v -928 -224 0
v -400 -256 0
v -416 -256 0
v -416 -240 0
v -400 -240 0
v -416 -256 0
v -432 -256 0
v -432 -240 0
v -416 -240 0
v -448 -256 0
v -464 -256 0
v -464 -240 0
v -448 -240 0
v -464 -256 0
v -480 -256 0
v -480 -240 0
v -464 -240 0
v -480 -256 0
v -496 -256 0
v -496 -240 0
v -480 -240 0
v -496 -256 0
v -512 -256 0
v -512 -240 0
v -496 -240 0
v -512 -256 0
v -528 -256 0
v -528 -240 0
v -512 -240 0
v -528 -256 0
v -544 -256 0
v -544 -240 0
v -528 -240 0
v -544 -256 0
v -560 -256 0
v -560 -240 0
v -544 -240 0
v -624 -256 0
v -640 -256 0
v -640 -240 0
v -624 -240 0
v -640 -256 0
v -656 -256 0
v -656 -240 0
v -640 -240 0
v -656 -256 0
v -672 -256 0
v -672 -240 0
v -656 -240 0
v -672 -256 0
v -688 -256 0
v -688 -240 0
v -672 -240 0
v -688 -256 0
v -704 -256 0
v -704 -240 0
v -688 -240 0
v -704 -256 0
v -720 -256 0
v -720 -240 0
v -704 -240 0
v -912 -256 0
v -928 -256 0
v -928 -240 0
v -912 -240 0
v -928 -256 0
v -944 -256 0
v -944 -240 0
v -928 -240 0
v -400 -272 0
v -416 -272 0
v -416 -256 0
v -400 -256 0
v -416 -272 0
v -432 -272 0
v -432 -256 0
v -416 -256 0
v -464 -272 0
v -480 -272 0
v -480 -256 0
v -464 -256 0
v -480 -272 0
v -496 -272 0
v -496 -256 0
v -480 -256 0
v -496 -272 0
v -512 -272 0
v -512 -256 0
v -496 -256 0
v -512 -272 0
v -528 -272 0
v -528 -256 0
v -512 -256 0
v -528 -272 0
v -544 -272 0
v -544 -256 0
v -528 -256 0
v -544 -272 0
v -560 -272 0
v -560 -256 0
v -544 -256 0
v -624 -272 0
v -640 -272 0
v -640 -256 0
v -624 -256 0
v -640 -272 0
v -656 -272 0
v -656 -256 0
v -640 -256 0
v -656 -272 0
v -672 -272 0
v -672 -256 0
v -656 -256 0
v -672 -272 0
v -688 -272 0
v -688 -256 0
v -672 -256 0
v -688 -272 0
v -704 -272 0
v -704 -256 0
v -688 -256 0
v -704 -272 0
v -720 -272 0
v -720 -256 0
v -704 -256 0
v -912 -272 0
v -928 -272 0
v -928 -256 0
v -912 -256 0
v -928 -272 0
v -944 -272 0
v -944 -256 0
v -928 -256 0
v -400 -288 0
v -416 -288 0
v -416 -272 0
v -400 -272 0
v -416 -288 0
v -432 -288 0
v -432 -272 0
v -416 -272 0
v -480 -288 0
v -496 -288 0
v -496 -272 0
v -480 -272 0
v -496 -288 0
v -512 -288 0
v -512 -272 0
v -496 -272 0
v -512 -288 0
v -528 -288 0
v -528 -272 0
v -512 -272 0
v -528 -288 0
v -544 -288 0
v -544 -272 0
v -528 -272 0
v -624 -288 0
v -640 -288 0
v -640 -272 0
v -624 -272 0
v -640 -288 0
v -656 -288 0
v -656 -272 0
v -640 -272 0
v -656 -288 0
v -672 -288 0
v -672 -272 0
v -656 -272 0
v -672 -288 0
v -688 -288 0
v -688 -272 0
v -672 -272 0
v -688 -288 0
v -704 -288 0
v -704 -272 0
v -688 -272 0
v -704 -288 0
v -720 -288 0
v -720 -272 0
v -704 -272 0
v -912 -288 0
v -928 -288 0
v -928 -272 0
v -912 -272 0
v -928 -288 0
v -944 -288 0
v -944 -272 0
v -928 -272 0
v -480 -304 0
v -496 -304 0
v -496 -288 0
v -480 -288 0
v -496 -304 0
v -512 -304 0
v -512 -288 0
v -496 -288 0
v -512 -304 0
v -528 -304 0
v -528 -288 0
v -512 -288 0
v -528 -304 0
v -544 -304 0
v -544 -288 0
v -528 -288 0
v -624 -304 0
v -640 -304 0
v -640 -288 0
v -624 -288 0
v -640 -304 0
v -656 -304 0
v -656 -288 0
v -640 -288 0
v -656 -304 0
v -672 -304 0
v -672 -288 0
v -656 -288 0
v -672 -304 0
v -688 -304 0
v -688 -288 0
v -672 -288 0
v -688 -304 0
v -704 -304 0
v -704 -288 0
v -688 -288 0
v -704 -304 0
v -720 -304 0
v -720 -288 0
v -704 -288 0
v -480 -320 0
v -496 -320 0
v -496 -304 0
v -480 -304 0
v -496 -320 0
v -512 -320 0
v -512 -304 0
v -496 -304 0
v -512 -320 0
v -528 -320 0
v -528 -304 0
v -512 -304 0
v -528 -320 0
v -544 -320 0
v -544 -304 0
v -528 -304 0
v -480 -336 0
v -496 -336 0
v -496 -320 0
v -480 -320 0
v -496 -336 0
v -512 -336 0
v -512 -320 0
v -496 -320 0
v -512 -336 0
v -528 -336 0
v -528 -320 0
v -512 -320 0
v -528 -336 0
v -544 -336 0
v -544 -320 0
v -528 -320 0
v -480 -368 0
v -496 -368 0
v -496 -352 0
v -480 -352 0
v -496 -368 0
v -512 -368 0
v -512 -352 0
v -496 -352 0
v -512 -368 0
v -528 -368 0
v -528 -352 0
v -512 -352 0
v -528 -368 0
v -544 -368 0
v -544 -352 0
v -528 -352 0
v -480 -384 0
v -496 -384 0
v -496 -368 0
v -480 -368 0
v -496 -384 0
v -512 -384 0
v -512 -368 0
v -496 -368 0
v -512 -384 0
v -528 -384 0
v -528 -368 0
v -512 -368 0
v -528 -384 0
v -544 -384 0
v -544 -368 0
v -528 -368 0
v -704 -432 0
v -720 -432 0
v -720 -416 0
v -704 -416 0
v -720 -432 0
v -736 -432 0
v -736 -416 0
v -720 -416 0
v -896 -432 0
v -912 -432 0
v -912 -416 0
v -896 -416 0
v -912 -432 0
v -928 -432 0
v -928 -416 0
v -912 -416 0
v -704 -448 0
v -720 -448 0
v -720 -432 0
v -704 -432 0
v -720 -448 0
v -736 -448 0
v -736 -432 0
v -720 -432 0
v -896 -448 0
v -912 -448 0
v -912 -432 0
v -896 -432 0
v -912 -448 0
v -928 -448 0
v -928 -432 0
v -912 -432 0
v -704 -464 0
v -720 -464 0
v -720 -448 0
v -704 -448 0
v -720 -464 0
v -736 -464 0
v -736 -448 0
v -720 -448 0
v -896 -464 0
v -912 -464 0
v -912 -448 0
v -896 -448 0
v -912 -464 0
v -928 -464 0
v -928 -448 0
v -912 -448 0
v -704 -480 0
v -720 -480 0
v -720 -464 0
v -704 -464 0
v -720 -480 0
v -736 -480 0
v -736 -464 0
v -720 -464 0
v -896 -480 0
v -912 -480 0
v -912 -464 0
v -896 -464 0
v -912 -480 0
v -928 -480 0
v -928 -464 0
v -912 -464 0
v -704 -496 0
v -720 -496 0
v -720 -480 0
v -704 -480 0
v -720 -496 0
v -736 -496 0
v -736 -480 0
v -720 -480 0
v -896 -496 0
v -912 -496 0
v -912 -480 0
v -896 -480 0
v -912 -496 0
v -928 -496 0
v -928 -480 0
v -912 -480 0
v -704 -512 0
v -720 -512 0
v -720 -496 0
v -704 -496 0
v -720 -512 0
v -736 -512 0
v -736 -496 0
v -720 -496 0
v -896 -512 0
v -912 -512 0
v -912 -496 0
v -896 -496 0
v -912 -512 0
v -928 -512 0
v -928 -496 0
v -912 -496 0
v -784 -576 0
v -800 -576 0
v -800 -560 0
v -784 -560 0
v -800 -576 0
v -816 -576 0
v -816 -560 0
v -800 -560 0
v -816 -576 0
v -832 -576 0
v -832 -560 0
v -816 -560 0
v -832 -576 0
v -848 -576 0
v -848 -560 0
v -832 -560 0
v -704 -608 0
v -720 -608 0
v -720 -592 0
v -704 -592 0
v -720 -608 0
v -736 -608 0
v -736 -592 0
v -720 -592 0
v -896 -608 0
v -912 -608 0
v -912 -592 0
v -896 -592 0
v -912 -608 0
v -928 -608 0
v -928 -592 0
v -912 -592 0
v -704 -624 0
v -720 -624 0
v -720 -608 0
v -704 -608 0
v -720 -624 0
v -736 -624 0
v -736 -608 0
v -720 -608 0
v -896 -624 0
v -912 -624 0
v -912 -608 0
v -896 -608 0
v -912 -624 0
v -928 -624 0
v -928 -608 0
v -912 -608 0
v -704 -640 0
v -720 -640 0
v -720 -624 0
v -704 -624 0
v -720 -640 0
v -736 -640 0
v -736 -624 0
v -720 -624 0
v -896 -640 0
v -912 -640 0
v -912 -624 0
v -896 -624 0
v -912 -640 0
v -928 -640 0
v -928 -624 0
v -912 -624 0
v -400 -656 0
v -416 -656 0
v -416 -640 0
v -400 -640 0
v -416 -656 0
v -432 -656 0
v -432 -640 0
v -416 -640 0
v -704 -656 0
v -720 -656 0
v -720 -640 0
v -704 -640 0
v -720 -656 0
v -736 -656 0
v -736 -640 0
v -720 -640 0
v -896 -656 0
v -912 -656 0
v -912 -640 0
v -896 -640 0
v -912 -656 0
v -928 -656 0
v -928 -640 0
v -912 -640 0
v -928 -656 0
v -944 -656 0
v -944 -640 0
v -928 -640 0
v -400 -672 0
v -416 -672 0
v -416 -656 0
v -400 -656 0
v -416 -672 0
v -432 -672 0
v -432 -656 0
v -416 -656 0
v -704 -672 0
v -720 -672 0
v -720 -656 0
v -704 -656 0
v -720 -672 0
v -736 -672 0
v -736 -656 0
v -720 -656 0
v -896 -672 0
v -912 -672 0
v -912 -656 0
v -896 -656 0
v -912 -672 0
v -928 -672 0
v -928 -656 0
v -912 -656 0
v -928 -672 0
v -944 -672 0
v -944 -656 0
v -928 -656 0
v -400 -688 0
v -416 -688 0
v -416 -672 0
v -400 -672 0
v -416 -688 0
v -432 -688 0
v -432 -672 0
v -416 -672 0
v -704 -688 0
v -720 -688 0
v -720 -672 0
v -704 -672 0
v -720 -688 0
v -736 -688 0
v -736 -672 0
v -720 -672 0
v -896 -688 0
v -912 -688 0
v -912 -672 0
v -896 -672 0
v -912 -688 0
v -928 -688 0
v -928 -672 0
v -912 -672 0
v -928 -688 0
v -944 -688 0
v -944 -672 0
v -928 -672 0
v -400 -704 0
v -416 -704 0
v -416 -688 0
v -400 -688 0
v -416 -704 0
v -432 -704 0
v -432 -688 0
v -416 -688 0
v -912 -704 0
v -928 -704 0
v -928 -688 0
v -912 -688 0
v -928 -704 0
v -944 -704 0
v -944 -688 0
v -928 -688 0

# Texture cooridinates (Count = 200)
vt 0.5 0.1842105
vt 0.5625 0.1842105
vt 0.5625 0.2105263
vt 0.5 0.2105263
vt 0.625 0.1842105
vt 0.625 0.2105263
vt 0.625 0.4473684
vt 0.6875 0.4473684
vt 0.6875 0.4736842
vt 0.625 0.4736842
vt 0.75 0.4473684
vt 0.75 0.4736842
vt 0.8125 0.4473684
vt 0.8125 0.4736842
vt 0.875 0.4473684
vt 0.875 0.4736842
vt 0.9375 0.4473684
vt 0.9375 0.4736842
vt 1 0.4473684
vt 1 0.4736842
vt 0.625 0.07894737
vt 0.6875 0.07894737
vt 0.6875 0.1052632
vt 0.625 0.1052632
vt 0.75 0.07894737
vt 0.75 0.1052632
vt 0.5 0.1578947
vt 0.5625 0.1578947
vt 0.625 0.1578947
vt 0.625 0.4210526
vt 0.6875 0.4210526
vt 0.75 0.4210526
vt 0.8125 0.4210526
vt 0.875 0.4210526
vt 0.9375 0.4210526
vt 1 0.4210526
vt 0.625 0.05263156
vt 0.6875 0.05263156
vt 0.75 0.05263156
vt 0.6875 0.3947368
vt 0.75 0.3947368
vt 0.8125 0.3947368
vt 0.875 0.3947368
vt 0.9375 0.3947368
vt 0.5 0.1315789
vt 0.5625 0.1315789
vt 0.625 0.1315789
vt 0.375 0.2894737
vt 0.4375 0.2894737
vt 0.4375 0.3157895
vt 0.375 0.3157895
vt 0.5 0.2894737
vt 0.5 0.3157895
vt 0.5625 0.2894737
vt 0.5625 0.3157895
vt 0.625 0.2894737
vt 0.625 0.3157895
vt 0.875 0.07894737
vt 0.9375 0.07894737
vt 0.9375 0.1052632
vt 0.875 0.1052632
vt 1 0.07894737
vt 1 0.1052632
vt 0.625 0.3684211
vt 0.6875 0.3684211
vt 0.625 0.3947368
vt 0.75 0.3684211
vt 0.875 0.3684211
vt 0.9375 0.3684211
vt 1 0.3684211
vt 1 0.3947368
vt 0.5 0.1052632
vt 0.5625 0.1052632
vt 0.625 0.5789474
vt 0.6875 0.5789474
vt 0.6875 0.6052631
vt 0.625 0.6052631
vt 0.75 0.5789474
vt 0.75 0.6052631
vt 0.8125 0.5789474
vt 0.8125 0.6052631
vt 0.875 0.5789474
vt 0.875 0.6052631
vt 0.9375 0.5789474
vt 0.9375 0.6052631
vt 1 0.5789474
vt 1 0.6052631
vt 0.375 0.2631579
vt 0.4375 0.2631579
vt 0.5 0.2631579
vt 0.5625 0.2631579
vt 0.625 0.2631579
vt 0.875 0.05263156
vt 0.9375 0.05263156
vt 1 0.05263156
vt 0.4375 0.6052631
vt 0.5 0.6052631
vt 0.5 0.6315789
vt 0.4375 0.6315789
vt 0.625 0.3421053
vt 0.6875 0.3421053
vt 0.375 0.6052631
vt 0.375 0.6315789
vt 0.5625 0.6052631
vt 0.5625 0.6315789
vt 0.625 0.6315789
vt 0.9375 0.3421053
vt 1 0.3421053
vt 0.625 0.5526316
vt 0.6875 0.5526316
vt 0.75 0.5526316
vt 0.8125 0.5526316
vt 0.875 0.5526316
vt 0.9375 0.5526316
vt 1 0.5526316
vt 0.875 0.02631581
vt 0.9375 0.02631581
vt 1 0.02631581
vt 0.6875 0.3157895
vt 0.375 0.5789474
vt 0.4375 0.5789474
vt 0.5 0.5789474
vt 0.5625 0.5789474
vt 0.9375 0.3157895
vt 1 0.3157895
vt 0.625 0.5263158
vt 0.6875 0.5263158
vt 0.75 0.5263158
vt 0.8125 0.5263158
vt 0.875 0.5263158
vt 0.9375 0.5263158
vt 1 0.5263158
vt 0.875 0
vt 0.9375 0
vt 1 0
vt 0.375 0.5526316
vt 0.4375 0.5526316
vt 0.5 0.5526316
vt 0.5625 0.5526316
vt 0.625 0.5
vt 0.6875 0.5
vt 0.75 0.5
vt 0.8125 0.5
vt 0.875 0.5
vt 0.9375 0.5
vt 1 0.5
vt 0.375 0.5263158
vt 0.4375 0.5263158
vt 0.5 0.5263158
vt 0.5625 0.5263158
vt 0.375 0.5
vt 0.4375 0.5
vt 0.5 0.5
vt 0.5625 0.5
vt 0.375 0.4736842
vt 0.4375 0.4736842
vt 0.5 0.4736842
vt 0.5625 0.4736842
vt 0.3125 0.05263156
vt 0.375 0.05263156
vt 0.375 0.07894737
vt 0.3125 0.07894737
vt 0.4375 0.05263156
vt 0.4375 0.07894737
vt 0.5 0.05263156
vt 0.5 0.07894737
vt 0.5625 0.05263156
vt 0.5625 0.07894737
vt 0.3125 0.02631581
vt 0.375 0.02631581
vt 0.4375 0.02631581
vt 0.5 0.02631581
vt 0.5625 0.02631581
vt 0.875 0.8157895
vt 0.9375 0.8157895
vt 0.9375 0.8421053
vt 0.875 0.8421053
vt 1 0.8157895
vt 1 0.8421053
vt 0.875 0.7894737
vt 0.9375 0.7894737
vt 1 0.7894737
vt 0.875 0.7631579
vt 0.9375 0.7631579
vt 1 0.7631579
vt 0.875 0.7368421
vt 0.9375 0.7368421
vt 1 0.7368421
vt 0.875 0.7105263
vt 0.9375 0.7105263
vt 1 0.7105263
vt 0.875 0.6842105
vt 0.9375 0.6842105
vt 1 0.6842105
vt 0.5 0.7631579
vt 0.5625 0.7631579
vt 0.5625 0.7894737
vt 0.5 0.7894737
vt 0.625 0.7631579
vt 0.625 0.7894737

# Normal
vn 0 0 -1

# Mesh description
g Demo_map_mesh_0002

# Faces
f 1/1/1 2/2/1 3/3/1 4/4/1
f 5/2/1 6/5/1 7/6/1 8/3/1
f 9/7/1 10/8/1 11/9/1 12/10/1
f 13/8/1 14/11/1 15/12/1 16/9/1
f 17/11/1 18/13/1 19/14/1 20/12/1
f 21/13/1 22/15/1 23/16/1 24/14/1
f 25/15/1 26/17/1 27/18/1 28/16/1
f 29/17/1 30/19/1 31/20/1 32/18/1
f 33/1/1 34/2/1 35/3/1 36/4/1
f 37/2/1 38/5/1 39/6/1 40/3/1
f 41/21/1 42/22/1 43/23/1 44/24/1
f 45/22/1 46/25/1 47/26/1 48/23/1
f 49/21/1 50/22/1 51/23/1 52/24/1
f 53/22/1 54/25/1 55/26/1 56/23/1
f 57/27/1 58/28/1 59/2/1 60/1/1
f 61/28/1 62/29/1 63/5/1 64/2/1
f 65/30/1 66/31/1 67/8/1 68/7/1
f 69/31/1 70/32/1 71/11/1 72/8/1
f 73/32/1 74/33/1 75/13/1 76/11/1
f 77/33/1 78/34/1 79/15/1 80/13/1
f 81/34/1 82/35/1 83/17/1 84/15/1
f 85/35/1 86/36/1 87/19/1 88/17/1
f 89/27/1 90/28/1 91/2/1 92/1/1
f 93/28/1 94/29/1 95/5/1 96/2/1
f 97/37/1 98/38/1 99/22/1 100/21/1
f 101/38/1 102/39/1 103/25/1 104/22/1
f 105/40/1 106/41/1 107/32/1 108/31/1
f 109/41/1 110/42/1 111/33/1 112/32/1
f 113/42/1 114/43/1 115/34/1 116/33/1
f 117/43/1 118/44/1 119/35/1 120/34/1
f 121/37/1 122/38/1 123/22/1 124/21/1
f 125/38/1 126/39/1 127/25/1 128/22/1
f 129/45/1 130/46/1 131/28/1 132/27/1
f 133/46/1 134/47/1 135/29/1 136/28/1
f 137/45/1 138/46/1 139/28/1 140/27/1
f 141/46/1 142/47/1 143/29/1 144/28/1
f 145/48/1 146/49/1 147/50/1 148/51/1
f 149/49/1 150/52/1 151/53/1 152/50/1
f 153/52/1 154/54/1 155/55/1 156/53/1
f 157/54/1 158/56/1 159/57/1 160/55/1
f 161/58/1 162/59/1 163/60/1 164/61/1
f 165/59/1 166/62/1 167/63/1 168/60/1
f 169/64/1 170/65/1 171/40/1 172/66/1
f 173/65/1 174/67/1 175/41/1 176/40/1
f 177/68/1 178/69/1 179/44/1 180/43/1
f 181/69/1 182/70/1 183/71/1 184/44/1
f 185/72/1 186/73/1 187/46/1 188/45/1
f 189/73/1 190/24/1 191/47/1 192/46/1
f 193/74/1 194/75/1 195/76/1 196/77/1
f 197/75/1 198/78/1 199/79/1 200/76/1
f 201/78/1 202/80/1 203/81/1 204/79/1
f 205/80/1 206/82/1 207/83/1 208/81/1
f 209/82/1 210/84/1 211/85/1 212/83/1
f 213/84/1 214/86/1 215/87/1 216/85/1
f 217/72/1 218/73/1 219/46/1 220/45/1
f 221/73/1 222/24/1 223/47/1 224/46/1
f 225/88/1 226/89/1 227/49/1 228/48/1
f 229/89/1 230/90/1 231/52/1 232/49/1
f 233/90/1 234/91/1 235/54/1 236/52/1
f 237/91/1 238/92/1 239/56/1 240/54/1
f 241/58/1 242/59/1 243/60/1 244/61/1
f 245/59/1 246/62/1 247/63/1 248/60/1
f 249/93/1 250/94/1 251/59/1 252/58/1
f 253/94/1 254/95/1 255/62/1 256/59/1
f 257/96/1 258/97/1 259/98/1 260/99/1
f 261/100/1 262/101/1 263/65/1 264/64/1
f 265/102/1 266/96/1 267/99/1 268/103/1
f 269/96/1 270/97/1 271/98/1 272/99/1
f 273/97/1 274/104/1 275/105/1 276/98/1
f 277/104/1 278/77/1 279/106/1 280/105/1
f 281/107/1 282/108/1 283/70/1 284/69/1
f 285/109/1 286/110/1 287/75/1 288/74/1
f 289/110/1 290/111/1 291/78/1 292/75/1
f 293/111/1 294/112/1 295/80/1 296/78/1
f 297/112/1 298/113/1 299/82/1 300/80/1
f 301/113/1 302/114/1 303/84/1 304/82/1
f 305/114/1 306/115/1 307/86/1 308/84/1
f 309/93/1 310/94/1 311/59/1 312/58/1
f 313/94/1 314/95/1 315/62/1 316/59/1
f 317/116/1 318/117/1 319/94/1 320/93/1
f 321/117/1 322/118/1 323/95/1 324/94/1
f 325/57/1 326/119/1 327/101/1 328/100/1
f 329/120/1 330/121/1 331/96/1 332/102/1
f 333/121/1 334/122/1 335/97/1 336/96/1
f 337/122/1 338/123/1 339/104/1 340/97/1
f 341/123/1 342/74/1 343/77/1 344/104/1
f 345/124/1 346/125/1 347/108/1 348/107/1
f 349/126/1 350/127/1 351/110/1 352/109/1
f 353/127/1 354/128/1 355/111/1 356/110/1
f 357/128/1 358/129/1 359/112/1 360/111/1
f 361/129/1 362/130/1 363/113/1 364/112/1
f 365/130/1 366/131/1 367/114/1 368/113/1
f 369/131/1 370/132/1 371/115/1 372/114/1
f 373/116/1 374/117/1 375/94/1 376/93/1
f 377/117/1 378/118/1 379/95/1 380/94/1
f 381/133/1 382/134/1 383/117/1 384/116/1
f 385/134/1 386/135/1 387/118/1 388/117/1
f 389/136/1 390/137/1 391/121/1 392/120/1
f 393/137/1 394/138/1 395/122/1 396/121/1
f 397/138/1 398/139/1 399/123/1 400/122/1
f 401/139/1 402/109/1 403/74/1 404/123/1
f 405/140/1 406/141/1 407/127/1 408/126/1
f 409/141/1 410/142/1 411/128/1 412/127/1
f 413/142/1 414/143/1 415/129/1 416/128/1
f 417/143/1 418/144/1 419/130/1 420/129/1
f 421/144/1 422/145/1 423/131/1 424/130/1
f 425/145/1 426/146/1 427/132/1 428/131/1
f 429/133/1 430/134/1 431/117/1 432/116/1
f 433/134/1 434/135/1 435/118/1 436/117/1
f 437/147/1 438/148/1 439/137/1 440/136/1
f 441/148/1 442/149/1 443/138/1 444/137/1
f 445/149/1 446/150/1 447/139/1 448/138/1
f 449/150/1 450/126/1 451/109/1 452/139/1
f 453/10/1 454/9/1 455/141/1 456/140/1
f 457/9/1 458/12/1 459/142/1 460/141/1
f 461/12/1 462/14/1 463/143/1 464/142/1
f 465/14/1 466/16/1 467/144/1 468/143/1
f 469/16/1 470/18/1 471/145/1 472/144/1
f 473/18/1 474/20/1 475/146/1 476/145/1
f 477/151/1 478/152/1 479/148/1 480/147/1
f 481/152/1 482/153/1 483/149/1 484/148/1
f 485/153/1 486/154/1 487/150/1 488/149/1
f 489/154/1 490/140/1 491/126/1 492/150/1
f 493/155/1 494/156/1 495/152/1 496/151/1
f 497/156/1 498/157/1 499/153/1 500/152/1
f 501/157/1 502/158/1 503/154/1 504/153/1
f 505/158/1 506/10/1 507/140/1 508/154/1
f 509/159/1 510/160/1 511/161/1 512/162/1
f 513/160/1 514/163/1 515/164/1 516/161/1
f 517/163/1 518/165/1 519/166/1 520/164/1
f 521/165/1 522/167/1 523/168/1 524/166/1
f 525/169/1 526/170/1 527/160/1 528/159/1
f 529/170/1 530/171/1 531/163/1 532/160/1
f 533/171/1 534/172/1 535/165/1 536/163/1
f 537/172/1 538/173/1 539/167/1 540/165/1
f 541/174/1 542/175/1 543/176/1 544/177/1
f 545/175/1 546/178/1 547/179/1 548/176/1
f 549/174/1 550/175/1 551/176/1 552/177/1
f 553/175/1 554/178/1 555/179/1 556/176/1
f 557/180/1 558/181/1 559/175/1 560/174/1
f 561/181/1 562/182/1 563/178/1 564/175/1
f 565/180/1 566/181/1 567/175/1 568/174/1
f 569/181/1 570/182/1 571/178/1 572/175/1
f 573/183/1 574/184/1 575/181/1 576/180/1
f 577/184/1 578/185/1 579/182/1 580/181/1
f 581/183/1 582/184/1 583/181/1 584/180/1
f 585/184/1 586/185/1 587/182/1 588/181/1
f 589/186/1 590/187/1 591/184/1 592/183/1
f 593/187/1 594/188/1 595/185/1 596/184/1
f 597/186/1 598/187/1 599/184/1 600/183/1
f 601/187/1 602/188/1 603/185/1 604/184/1
f 605/189/1 606/190/1 607/187/1 608/186/1
f 609/190/1 610/191/1 611/188/1 612/187/1
f 613/189/1 614/190/1 615/187/1 616/186/1
f 617/190/1 618/191/1 619/188/1 620/187/1
f 621/192/1 622/193/1 623/190/1 624/189/1
f 625/193/1 626/194/1 627/191/1 628/190/1
f 629/192/1 630/193/1 631/190/1 632/189/1
f 633/193/1 634/194/1 635/191/1 636/190/1
f 637/195/1 638/196/1 639/197/1 640/198/1
f 641/196/1 642/199/1 643/200/1 644/197/1
f 645/195/1 646/196/1 647/197/1 648/198/1
f 649/196/1 650/199/1 651/200/1 652/197/1
f 653/174/1 654/175/1 655/176/1 656/177/1
f 657/175/1 658/178/1 659/179/1 660/176/1
f 661/174/1 662/175/1 663/176/1 664/177/1
f 665/175/1 666/178/1 667/179/1 668/176/1
f 669/180/1 670/181/1 671/175/1 672/174/1
f 673/181/1 674/182/1 675/178/1 676/175/1
f 677/180/1 678/181/1 679/175/1 680/174/1
f 681/181/1 682/182/1 683/178/1 684/175/1
f 685/183/1 686/184/1 687/181/1 688/180/1
f 689/184/1 690/185/1 691/182/1 692/181/1
f 693/183/1 694/184/1 695/181/1 696/180/1
f 697/184/1 698/185/1 699/182/1 700/181/1
f 701/58/1 702/59/1 703/60/1 704/61/1
f 705/59/1 706/62/1 707/63/1 708/60/1
f 709/186/1 710/187/1 711/184/1 712/183/1
f 713/187/1 714/188/1 715/185/1 716/184/1
f 717/186/1 718/187/1 719/184/1 720/183/1
f 721/187/1 722/188/1 723/185/1 724/184/1
f 725/59/1 726/62/1 727/63/1 728/60/1
f 729/93/1 730/94/1 731/59/1 732/58/1
f 733/94/1 734/95/1 735/62/1 736/59/1
f 737/189/1 738/190/1 739/187/1 740/186/1
f 741/190/1 742/191/1 743/188/1 744/187/1
f 745/189/1 746/190/1 747/187/1 748/186/1
f 749/190/1 750/191/1 751/188/1 752/187/1
f 753/94/1 754/95/1 755/62/1 756/59/1
f 757/116/1 758/117/1 759/94/1 760/93/1
f 761/117/1 762/118/1 763/95/1 764/94/1
f 765/192/1 766/193/1 767/190/1 768/189/1
f 769/193/1 770/194/1 771/191/1 772/190/1
f 773/192/1 774/193/1 775/190/1 776/189/1
f 777/193/1 778/194/1 779/191/1 780/190/1
f 781/117/1 782/118/1 783/95/1 784/94/1
f 785/133/1 786/134/1 787/117/1 788/116/1
f 789/134/1 790/135/1 791/118/1 792/117/1
f 793/133/1 794/134/1 795/117/1 796/116/1
f 797/134/1 798/135/1 799/118/1 800/117/1

